<svg width="632" height="821" fill="none" xmlns="http://www.w3.org/2000/svg"><g clip-path="url(#a)"><path d="M426 589.72c90.76 0 72 114.24 72.87 241.28H426V589.72Z" fill="#FDD2B2"/><path d="M448.74 662.87 426 701l11.38 130h31.76c.77-180.27-20.4-168.13-20.4-168.13Z" fill="#F3AB98"/><path d="M49.25 331C49.25 183.68 168.68 64.25 316 64.25S582.75 183.68 582.75 331a266.213 266.213 0 0 1-98.65 207.12 264.415 264.415 0 0 1-16.94 12.69C407 589 331 589 262.39 582.89c-6.66-1-13.3-2.26-19.89-3.71-26.33-5.8-51.82-14.75-75.37-27.8a209.22 209.22 0 0 1-16.93-11.62 199.732 199.732 0 0 1-15.8-13.38 265.9 265.9 0 0 1-13.79-13.78A265.858 265.858 0 0 1 49.25 331Z" fill="#FDD2B2"/><path d="M85.61 465.48c.7 1.2 1.39 2.4 2.11 3.58.43.72.88 1.42 1.33 2.14.66 1.07 1.32 2.14 2 3.19.48.76 1 1.5 1.46 2.24.66 1 1.32 2 2 3 .51.76 1 1.52 1.56 2.28.66 1 1.32 1.92 2 2.88.54.77 1.1 1.53 1.65 2.3.55.77 1.34 1.85 2 2.77.66.92 1.15 1.53 1.73 2.29.58.76 1.37 1.8 2.07 2.7.7.9 1.19 1.51 1.79 2.26.6.75 1.41 1.76 2.12 2.63.71.87 1.23 1.49 1.85 2.23.62.74 1.44 1.72 2.17 2.57.73.85 1.27 1.47 1.91 2.2l2.22 2.5c.65.73 1.31 1.44 2 2.16.86.94 1.73 1.87 2.6 2.79l1.21 1.28c1.29 1.34 2.59 2.68 3.91 4l.26.27c1.29 1.28 2.6 2.55 3.91 3.81l1.58 1.5c.95.89 1.9 1.78 2.86 2.66l1.16 1.06c1 .94 2.09 1.86 3.14 2.78 3.267 2.847 6.6 5.577 10 8.19a206.785 206.785 0 0 0 16.93 11.62c23.55 13 49 22 75.37 27.8 6.59 1.45 13.23 2.7 19.89 3.71 42.1 3.75 87 5.18 129.28-3.08C324.45 560 1.59 443.74 204.8 88.48c-2.72 1.25-5.4 2.54-8.06 3.88l-.59.29c-1.22.61-2.44 1.24-3.65 1.88l-1 .53c-3.76 2-7.48 4.07-11.13 6.23l-.9.53c-1.16.69-2.31 1.39-3.46 2.1l-.87.54a278.453 278.453 0 0 0-10.55 6.93l-1.08.75c-1.09.76-2.16 1.52-3.23 2.29l-.66.47a340.484 340.484 0 0 0-6.46 4.84l-.62.48c-1 .78-2 1.58-3 2.39l-1.17.94c-1 .81-2 1.62-3 2.45-2.11 1.75-4.19 3.55-6.24 5.37l-1.14 1-2.69 2.45L134 136a270.065 270.065 0 0 0-8.37 8.17l-1.38 1.41c-.79.82-1.58 1.64-2.36 2.47-.46.49-.92 1-1.37 1.48a214.59 214.59 0 0 0-4.06 4.46c-.45.51-.91 1-1.36 1.54-.71.81-1.41 1.63-2.11 2.45l-1.51 1.79c-.68.81-1.36 1.62-2 2.44-.54.66-1.08 1.33-1.61 2-1.07 1.33-2.12 2.66-3.16 4-.54.7-1.08 1.4-1.61 2.11s-1.2 1.59-1.79 2.4c-.59.81-1.07 1.45-1.59 2.18-.52.73-1.13 1.55-1.68 2.33a195.68 195.68 0 0 0-2.8 4.05c-.5.73-1 1.48-1.49 2.22-.49.74-1.1 1.66-1.64 2.5l-1.49 2.31-1.68 2.71c-.43.69-.86 1.38-1.28 2.07-.89 1.46-1.75 2.93-2.61 4.4l-1.22 2.16c-.54.95-1.08 1.91-1.61 2.87-.4.73-.8 1.46-1.19 2.19-.64 1.19-1.27 2.39-1.9 3.59l-1.2 2.34c-.64 1.28-1.28 2.55-1.91 3.84-.33.69-.67 1.39-1 2.09-.52 1.09-1 2.19-1.53 3.29-.31.66-.61 1.32-.91 2a213.102 213.102 0 0 0-2.17 5c-.22.52-.43 1.05-.65 1.57-.53 1.27-1.05 2.54-1.56 3.82-.27.67-.53 1.34-.79 2-.5 1.26-1 2.53-1.45 3.8-.21.55-.42 1.1-.62 1.65a549.286 549.286 0 0 0-1.85 5.26l-.56 1.7c-.44 1.333-.87 2.667-1.29 4l-.6 1.91c-.47 1.54-.93 3.08-1.37 4.63-.1.33-.2.66-.29 1-.52 1.84-1.02 3.687-1.5 5.54-.16.59-.3 1.19-.45 1.78-.35 1.39-.69 2.78-1 4.18l-.42 1.75c-.43 1.9-.85 3.8-1.24 5.71l-.15.77c-.34 1.7-.673 3.4-1 5.1-.11.61-.21 1.21-.32 1.82-.26 1.49-.51 3-.74 4.5-.08.51-.17 1-.24 1.52-.3 1.95-.57 3.91-.83 5.88l-.15 1.3c-.2 1.59-.38 3.19-.55 4.79-.06.6-.13 1.2-.19 1.81-.16 1.68-.31 3.37-.45 5.06 0 .35-.06.69-.08 1-.147 2-.277 4.017-.39 6.05 0 .53 0 1.07-.07 1.6a562.683 562.683 0 0 0-.18 4.71v1.77c0 2.05-.08 4.11-.08 6.17v.1c0 2.22 0 4.42.08 6.62 0 .76.06 1.52.08 2.28.05 1.47.1 2.94.17 4.41 0 .89.11 1.77.16 2.66.08 1.33.15 2.66.25 4 .07 1 .16 1.89.24 2.83.11 1.26.21 2.52.34 3.77.09 1 .21 1.94.31 2.91.14 1.21.27 2.43.42 3.64.12 1 .26 2 .39 2.95.16 1.18.32 2.37.5 3.55.15 1 .31 2 .47 3 .18 1.16.37 2.33.57 3.49.18 1 .36 2 .55 3 .21 1.15.43 2.3.65 3.44.22 1.14.41 2 .62 3 .24 1.14.48 2.27.74 3.4s.44 2 .68 2.93c.26 1.13.54 2.25.82 3.36.28 1.11.49 1.95.74 2.91.3 1.12.6 2.23.91 3.34.26 1 .53 1.92.81 2.87.32 1.11.65 2.21 1 3.31s.58 1.89.88 2.84a281.772 281.772 0 0 0 2 6.08c.38 1.09.76 2.18 1.15 3.27.33.91.65 1.83 1 2.74l1.24 3.27c.35.89.69 1.79 1 2.68.44 1.09.89 2.19 1.34 3.28.36.86.71 1.73 1.08 2.59.47 1.12 1 2.22 1.45 3.33.37.82.73 1.65 1.1 2.47.52 1.16 1.07 2.3 1.6 3.44l1.08 2.3c.61 1.26 1.24 2.5 1.87 3.75.32.63.62 1.27.95 1.9 1.92 3.74 3.92 7.43 6 11.07.29.47.66 1.08 1.02 1.69Z" fill="#F3AB98"/><path d="M49.25 331C49.25 183.68 168.68 64.25 316 64.25S582.75 183.68 582.75 331a266.213 266.213 0 0 1-98.65 207.12 264.415 264.415 0 0 1-16.94 12.69C407 589 331 589 262.39 582.89c-6.66-1-13.3-2.26-19.89-3.71-26.33-5.8-51.82-14.75-75.37-27.8a209.22 209.22 0 0 1-16.93-11.62 199.732 199.732 0 0 1-15.8-13.38 265.9 265.9 0 0 1-13.79-13.78A265.858 265.858 0 0 1 49.25 331Z" stroke="#592D3D" stroke-width="12" stroke-miterlimit="10"/><path d="M202.12 589.72c-90.77 0-72 114.24-72.87 241.28h72.87V589.72Z" fill="#FDD2B2"/><path d="M183.23 662.87 206 701l-11.39 130h-31.73c-.81-180.27 20.35-168.13 20.35-168.13Z" fill="#F3AB98"/><path d="M435.47 901H196.53a13.282 13.282 0 0 1-13.27-13.28V603a13.282 13.282 0 0 1 13.27-13.28h233.23c13.09 0 19 7.66 19 19.88v278.08a13.292 13.292 0 0 1-8.196 12.308A13.29 13.29 0 0 1 435.47 901Z" fill="#FDD2B2"/><path d="M445.05 597.62a19.333 19.333 0 0 1-2.51-4 17.241 17.241 0 0 0-8.28-3.51 28.847 28.847 0 0 0-4.5-.34H196.53A13.282 13.282 0 0 0 183.26 603c29 10.42 83.29 16.24 132.74 16.24 63.06 0 104.38-9.35 129.05-21.62Z" fill="#F3AB98"/><path d="M202.12 589.72c-90.77 0-72 114.24-72.87 241.28h50.07M426 589.72c90.76 0 72 114.24 72.87 241.28h-50.13L426 589.72Z" stroke="#592D3D" stroke-width="12" stroke-miterlimit="10" stroke-linecap="square"/><path d="m196.53 589.82 233.23-.1" stroke="#592D3D" stroke-width="12" stroke-miterlimit="10"/><path d="M196.53 901h116.62C204 901 212.24 669.82 183.26 669.82v217.86a13.29 13.29 0 0 0 3.872 9.413A13.276 13.276 0 0 0 196.53 901Z" fill="#F3AB98"/><path d="M177.26 691.85c-.19-3.67-.11-7.34.05-11s.47-7.35.86-11c.2-1.84.4-3.67.65-5.51.25-1.84.49-3.67.85-5.51a44.155 44.155 0 0 1 3.59-11 44.155 44.155 0 0 1 3.59 11c.36 1.84.62 3.67.85 5.51.23 1.84.45 3.67.65 5.51.38 3.67.68 7.34.85 11 .17 3.66.25 7.34.06 11h-12Z" fill="#592D3D"/><path d="M448.74 701v8c.26 34 .26 69 0 102.75v75.94A13.277 13.277 0 0 1 435.47 901H196.53a13.282 13.282 0 0 1-13.27-13.28v-65.85c-.25-34.87-.25-69.87 0-105.3v-24.72" stroke="#592D3D" stroke-width="12" stroke-miterlimit="10"/><path d="M442.74 701c-.19-4.17-.1-8.35.06-12.53s.47-8.35.85-12.53c.2-2.09.41-4.18.65-6.27.24-2.09.49-4.17.85-6.26a55.126 55.126 0 0 1 3.59-12.53 55.126 55.126 0 0 1 3.59 12.53c.36 2.09.62 4.18.85 6.26.23 2.08.45 4.18.65 6.27.38 4.18.69 8.35.85 12.53.16 4.18.25 8.36.06 12.53h-12Zm-56.06-27.55C386.9 664 398.9 660 404.9 666a10.59 10.59 0 0 1 2.264 3.466 10.598 10.598 0 0 1-.083 8.121 10.606 10.606 0 0 1-9.871 6.448 10.615 10.615 0 0 1-7.47-3.185 10.395 10.395 0 0 1-3.06-7.4Zm-162.57-.3C223.9 665 232.9 661 238.9 664c8 3 8 14 0 19-4 2-8 0-11.75-2.48a10.395 10.395 0 0 1-3.04-7.37Z" fill="#592D3D"/><path d="M316 662.77a27.136 27.136 0 0 1 1.5 5.84c.298 1.933.461 3.884.49 5.84l.3 11.69c.09 3.89.21 7.79.25 11.69l.17 11.67c.23 15.57.22 31.16.28 46.74.06 15.58.18 31.16 0 46.74-.09 7.79-.3 15.58-.53 23.37-.1 3.89-.29 7.79-.67 11.68a92.437 92.437 0 0 1-1.77 11.69 92.437 92.437 0 0 1-1.77-11.69c-.38-3.89-.57-7.79-.67-11.68-.23-7.79-.44-15.58-.53-23.37-.2-15.58 0-31.16 0-46.74 0-15.58 0-31.15.18-46.73l.17-11.7.33-11.68.33-11.68c.037-1.956.204-3.907.5-5.84a27.122 27.122 0 0 1 1.44-5.84Z" fill="#F3AB98"/><path d="M241.22 714a18.524 18.524 0 0 1 4.67-1.5 29.765 29.765 0 0 1 4.68-.5l9.35-.33 18.7-.41c12.46-.19 24.91-.24 37.38-.27 12.47-.03 24.93-.16 37.39 0 6.23.09 12.46.3 18.7.53 3.11.11 6.23.3 9.34.67 3.158.35 6.284.945 9.35 1.78a59.177 59.177 0 0 1-9.35 1.77c-3.11.38-6.23.57-9.34.67-6.24.23-12.47.43-18.7.52-12.46.19-24.92 0-37.39 0-12.47 0-24.93 0-37.4-.15-6.23-.06-12.46-.26-18.68-.5l-9.35-.34a29.417 29.417 0 0 1-4.67-.5 18.444 18.444 0 0 1-4.68-1.44Zm17.19 31.38a12.516 12.516 0 0 1 3.74-1.11 18.337 18.337 0 0 1 3.62-.15c2.39.1 4.78.16 7.17.21 4.78.11 9.56.15 14.34.17 9.63 0 19.09.08 28.76-.21 9.67-.29 19.26-.43 28.88-.39 4.81 0 9.62.13 14.42.24 2.416.032 4.83.189 7.23.47 2.467.272 4.902.785 7.27 1.53a36.597 36.597 0 0 1-7.16 2 61.074 61.074 0 0 1-7.21.86c-4.82.35-9.64.65-14.45.82-9.64.36-19.27.32-28.88.45-4.81 0-9.61.22-14.48.1-4.87-.12-9.69-.13-14.52-.31s-9.68-.58-14.5-1.08c-2.42-.27-4.82-.57-7.23-.9a16.838 16.838 0 0 1-3.57-.84 11.493 11.493 0 0 1-3.43-1.86Zm-3.48 35.49a13.079 13.079 0 0 1 3.82-1.5 19.13 19.13 0 0 1 3.82-.49l7.63-.32c5.09-.18 10.19-.33 15.28-.41 10.18-.15 20.36-.15 30.52-.15s20.36-.17 30.54 0c5.09.09 10.18.3 15.27.53 2.553.086 5.1.306 7.63.66 2.605.357 5.17.964 7.66 1.81a41.239 41.239 0 0 1-7.63 1.77 70.317 70.317 0 0 1-7.64.67c-5.09.23-10.18.44-15.27.53-10.18.2-20.37.06-30.55 0s-20.36-.06-30.54-.25c-5.09-.1-10.19-.28-15.28-.49l-7.63-.37a19.354 19.354 0 0 1-3.82-.5 12.85 12.85 0 0 1-3.81-1.49Zm238.87-43.52c.21-37.11-1.21-70.07-7.73-95.39C476 616.6 457.89 601.48 426 601.48L448.79 736s22.52 10.24 45.01 1.35Z" fill="#F3AB98"/><path d="M502.41 726.79a20.344 20.344 0 0 1-3.7 2.43" stroke="#592D3D" stroke-width="12" stroke-miterlimit="10" stroke-linecap="square"/><path d="M142.11 640.88c-6.83 25.57-8 59.13-7.74 97 19.9 8.54 50.42-2.15 50.42-2.15l17.33-132.24c-30.87-.03-49.27 13.87-60.01 37.39Z" fill="#F3AB98"/><path d="M429.76 589.72h-54.21v.1a62.796 62.796 0 0 1-1.44 13.39 61.024 61.024 0 0 1-1.74 6.33 50.884 50.884 0 0 1-10 16.83 48.372 48.372 0 0 1-4.5 4.43c-25.17 18.2-65.17 19.2-89.48-.58a51.783 51.783 0 0 1-7.11-7.6 50.846 50.846 0 0 1-9.1-19.41 62.458 62.458 0 0 1-1.07-6.59 61.057 61.057 0 0 1-.37-6.8v-.1h-54.21A13.282 13.282 0 0 0 183.26 603v284.68a13.29 13.29 0 0 0 3.872 9.413A13.276 13.276 0 0 0 196.53 901h238.94a13.282 13.282 0 0 0 13.27-13.28V609.6c0-12.22-5.89-19.88-18.98-19.88Z" fill="#D67070"/><path d="M426 589.72c63.54 0 73.4 56 73.9 133.17-18.6 11.62-48.91 1.31-48.91 1.31L426 589.72Z" fill="#D67070"/><path d="M448.74 662.87 426 701l11.38 130h11.61V725.35l17.28 2.89c-5.67-72.17-17.53-65.37-17.53-65.37Z" fill="#C46565"/><path d="M202.12 589.72c-61.78 0-75.83 53.8-76.85 127.66 19 19.86 58 4.58 58 4.58l18.85-132.24Z" fill="#D67070"/><path d="M183.23 662.87V722l-17.31 4.31c5.67-70.12 17.31-63.44 17.31-63.44Z" fill="#C46565"/><path d="M202.12 589.72c-66.79 0-80.08 54.7-80.76 130.72C142 735.22 183.22 722 183.22 722M426 589.72c67.41 0 78.45 56.29 78.9 133.78-26.2 12.43-53.91.7-53.91.7L426 589.72Z" stroke="#592D3D" stroke-width="12" stroke-miterlimit="10" stroke-linecap="square"/><path d="M196.53 901h116.62C204 901 212.24 669.82 183.26 669.82v217.86a13.29 13.29 0 0 0 3.872 9.413A13.276 13.276 0 0 0 196.53 901Z" fill="#C46565"/><path d="M177.26 691.85c-.19-3.67-.11-7.34.05-11s.47-7.35.86-11c.2-1.84.4-3.67.65-5.51.25-1.84.49-3.67.85-5.51a44.155 44.155 0 0 1 3.59-11 43.74 43.74 0 0 1 3.58 11c.37 1.84.63 3.67.86 5.51.23 1.84.45 3.67.65 5.51.38 3.67.68 7.34.85 11 .17 3.66.25 7.34.06 11h-12Z" fill="#592D3D"/><path d="M448.74 701v8c.26 34 .26 69 0 102.75v75.94A13.277 13.277 0 0 1 435.47 901H196.53a13.282 13.282 0 0 1-13.27-13.28v-65.85c-.25-34.87-.25-69.87 0-105.3v-24.72" stroke="#592D3D" stroke-width="12" stroke-miterlimit="10"/><path d="M442.74 701c-.19-4.17-.1-8.35.06-12.53s.47-8.35.85-12.53c.2-2.09.41-4.18.65-6.27.24-2.09.49-4.17.86-6.26a54.519 54.519 0 0 1 3.58-12.53 55.126 55.126 0 0 1 3.59 12.53c.36 2.09.62 4.18.85 6.26.23 2.08.45 4.18.65 6.27.38 4.18.69 8.35.85 12.53.16 4.18.25 8.36.06 12.53h-12Z" fill="#592D3D"/><path d="M375.55 589.82a62.796 62.796 0 0 1-1.44 13.39 61.024 61.024 0 0 1-1.74 6.33 50.884 50.884 0 0 1-10 16.83 48.372 48.372 0 0 1-4.5 4.43c-25.17 18.2-65.17 19.2-89.48-.58a51.783 51.783 0 0 1-7.11-7.6 50.846 50.846 0 0 1-9.1-19.41 62.458 62.458 0 0 1-1.07-6.59 61.057 61.057 0 0 1-.37-6.8m-54.21 0 233.23-.1-233.23.1Z" stroke="#592D3D" stroke-width="12" stroke-miterlimit="10"/><path d="M319.4 659.39a66.595 66.595 0 0 1-18.39 1.1 69.78 69.78 0 0 1-18.2-3.76 61.442 61.442 0 0 1-16.5-8.64l-1.86-1.41c-.61-.48-1.2-1-1.79-1.52a32.226 32.226 0 0 1-3.33-3.28 43.838 43.838 0 0 1-5.38-7.51 87.56 87.56 0 0 0 6.74 6.09c.58.48 1.17.95 1.75 1.4.58.45 1.23.82 1.84 1.24.61.42 1.22.84 1.85 1.23l1.91 1.16a88.081 88.081 0 0 0 16.1 7.46 106.232 106.232 0 0 0 17.25 4.45 173.89 173.89 0 0 0 18.01 1.99Z" fill="#592D3D"/><path d="M123.83 723.5a24.507 24.507 0 0 0 3.68 2.77" stroke="#592D3D" stroke-width="12" stroke-miterlimit="10" stroke-linecap="square"/><path d="M490.7 713.69a19.895 19.895 0 0 1-6.76 2.52 34.796 34.796 0 0 1-7.2.65 40.197 40.197 0 0 1-7.18-.79c-1.18-.21-2.33-.56-3.49-.87-1.16-.31-2.27-.77-3.37-1.24 1.21 0 2.38.18 3.56.28l3.52.29c1.17 0 2.33.2 3.5.21 1.17.01 2.32.11 3.48.12 2.333.04 4.667-.023 7-.19a49.333 49.333 0 0 0 6.94-.98Z" fill="#592D3D"/><path d="M382.88 748.83c0-8.86-11.1-17.26-28.11-22.47 3.93-17.34 2.18-31.13-5.51-35.55a9.564 9.564 0 0 0-6.08-1.56c-8 .13-17.31 5.35-27.23 14.62-9.95-9.22-20.95-14.67-27.24-14.51-3.16.09-4.37.52-6.16 1.56-7.67 4.41-9.38 18.18-5.43 35.47-17 5.23-28 13.61-28 22.44 0 8.83 11.1 17.26 28.11 22.47-3.93 17.34-2.18 31.13 5.51 35.55a11.928 11.928 0 0 0 6.13 1.53c7.5 0 17.31-5.35 27.24-14.62 9.92 9.22 19.74 14.51 27.24 14.51a12.104 12.104 0 0 0 6.16-1.53c7.66-4.42 9.38-18.19 5.42-35.47 16.91-5.21 27.95-13.61 27.95-22.44Zm-39.72-53.49a6.325 6.325 0 0 1 3.1.71c3.71 2.13 5.32 10.23 4.07 20.64-.3 2.56-.79 5.26-1.39 8a132.986 132.986 0 0 0-17.32-3 132.861 132.861 0 0 0-11.34-13.63c8.88-8.19 17.21-12.71 22.88-12.72Zm-51.32 67.45c1.28 2.18 2.59 4.307 3.93 6.38-3.87-.57-7.61-1.28-11.18-2.15 1-3.52 2.26-7.15 3.68-10.77 1.12 2.18 2.29 4.36 3.57 6.54Zm-7.33-32.15c3.57-.84 7.33-1.58 11.23-2.15-1.33 2.1-2.67 4.25-3.92 6.46s-2.43 4.36-3.55 6.54a114.84 114.84 0 0 1-3.76-10.85Zm6.95 18.27c1.69-3.65 3.6-7.31 5.65-10.88 2.05-3.57 4.3-7.17 6.57-10.41 4.06-.36 8.18-.55 12.32-.55 4.14 0 8.23.19 12.27.52 2.26 3.24 4.47 6.71 6.6 10.36 2.13 3.65 4 7.2 5.67 10.85-1.72 3.66-3.6 7.31-5.65 10.88-2.05 3.57-4.3 7.17-6.57 10.42-4.06.35-8.18.54-12.32.54-4.14 0-8.23-.19-12.27-.52-2.26-3.24-4.47-6.7-6.6-10.36-2.13-3.66-3.95-7.2-5.67-10.85Zm48.7 13.8c1.25-2.18 2.42-4.39 3.54-6.57a114.649 114.649 0 0 1 3.76 10.86c-3.57.87-7.33 1.61-11.23 2.18 1.34-2.11 2.67-4.26 3.93-6.47Zm0-27.84c-1.25-2.18-2.59-4.31-3.93-6.38 3.88.567 7.607 1.283 11.18 2.15-1 3.52-2.26 7.15-3.68 10.77-1.15-2.18-2.32-4.36-3.6-6.54h.03Zm-16.66-13.72c-2.46-.1-5-.19-7.5-.19s-5.1.06-7.58.19a105.674 105.674 0 0 1 7.5-8.72 114.22 114.22 0 0 1 7.58 8.72Zm-37.93-25a6.084 6.084 0 0 1 3.14-.71c5.64 0 14 4.5 22.9 12.71a129.387 129.387 0 0 0-11.26 13.6 129.052 129.052 0 0 0-17.34 3c-.63-2.72-1.09-5.37-1.42-7.9-1.28-10.42.3-18.52 3.98-20.67v-.03Zm-6.87 69.23c-2.7-.85-5.26-1.78-7.63-2.78-9.66-4.12-15.9-9.52-15.9-13.8 0-4.28 6.24-9.71 15.9-13.8 2.34-1 4.9-1.91 7.55-2.75a130.759 130.759 0 0 0 6.13 16.6 130.734 130.734 0 0 0-6.05 16.56v-.03Zm10.12 36.91a6.435 6.435 0 0 1-3.08-.73c-3.71-2.13-5.32-10.23-4.07-20.64.3-2.57.79-5.26 1.39-8a131.264 131.264 0 0 0 17.32 3 131.91 131.91 0 0 0 11.34 13.64c-8.89 8.24-17.23 12.76-22.9 12.76v-.03Zm27.23-17.09a114.561 114.561 0 0 1-7.58-8.73c2.46.11 5 .19 7.5.19s5.1-.05 7.58-.19a106.013 106.013 0 0 1-7.5 8.76v-.03Zm30.38 16.25a6.084 6.084 0 0 1-3.14.71c-5.64 0-14-4.5-22.9-12.71a129.387 129.387 0 0 0 11.26-13.6 129.052 129.052 0 0 0 17.34-3 75.545 75.545 0 0 1 1.42 7.93c1.28 10.45-.3 18.54-3.98 20.7v-.03Zm14.48-38.85c-2.35 1-4.91 1.9-7.56 2.75a131.57 131.57 0 0 0-6.13-16.61 129.01 129.01 0 0 0 6-16.52c2.7.85 5.26 1.77 7.66 2.78 9.66 4.12 15.9 9.52 15.9 13.8 0 4.28-6.22 9.74-15.87 13.83v-.03Z" fill="#000" stroke="#fff" stroke-width="16"/><path d="M315.97 761.29c6.881 0 12.46-5.579 12.46-12.46 0-6.881-5.579-12.46-12.46-12.46-6.881 0-12.46 5.579-12.46 12.46 0 6.881 5.579 12.46 12.46 12.46Z" fill="#000" stroke="#fff" stroke-width="24"/><path d="M382.88 748.83c0-8.86-11.1-17.26-28.11-22.47 3.93-17.34 2.18-31.13-5.51-35.55a9.564 9.564 0 0 0-6.08-1.56c-8 .13-17.31 5.35-27.23 14.62-9.95-9.22-20.95-14.67-27.24-14.51-3.16.09-4.37.52-6.16 1.56-7.67 4.41-9.38 18.18-5.43 35.47-17 5.23-28 13.61-28 22.44 0 8.83 11.1 17.26 28.11 22.47-3.93 17.34-2.18 31.13 5.51 35.55a11.928 11.928 0 0 0 6.13 1.53c7.5 0 17.31-5.35 27.24-14.62 9.92 9.22 19.74 14.51 27.24 14.51a12.104 12.104 0 0 0 6.16-1.53c7.66-4.42 9.38-18.19 5.42-35.47 16.91-5.21 27.95-13.61 27.95-22.44Zm-39.72-53.49a6.325 6.325 0 0 1 3.1.71c3.71 2.13 5.32 10.23 4.07 20.64-.3 2.56-.79 5.26-1.39 8a132.986 132.986 0 0 0-17.32-3 132.861 132.861 0 0 0-11.34-13.63c8.88-8.19 17.21-12.71 22.88-12.72Zm-51.32 67.45c1.28 2.18 2.59 4.307 3.93 6.38-3.87-.57-7.61-1.28-11.18-2.15 1-3.52 2.26-7.15 3.68-10.77 1.12 2.18 2.29 4.36 3.57 6.54Zm-7.33-32.15c3.57-.84 7.33-1.58 11.23-2.15-1.33 2.1-2.67 4.25-3.92 6.46s-2.43 4.36-3.55 6.54a114.84 114.84 0 0 1-3.76-10.85Zm6.95 18.27c1.69-3.65 3.6-7.31 5.65-10.88 2.05-3.57 4.3-7.17 6.57-10.41 4.06-.36 8.18-.55 12.32-.55 4.14 0 8.23.19 12.27.52 2.26 3.24 4.47 6.71 6.6 10.36 2.13 3.65 4 7.2 5.67 10.85-1.72 3.66-3.6 7.31-5.65 10.88-2.05 3.57-4.3 7.17-6.57 10.42-4.06.35-8.18.54-12.32.54-4.14 0-8.23-.19-12.27-.52-2.26-3.24-4.47-6.7-6.6-10.36-2.13-3.66-3.95-7.2-5.67-10.85Zm48.7 13.8c1.25-2.18 2.42-4.39 3.54-6.57a114.649 114.649 0 0 1 3.76 10.86c-3.57.87-7.33 1.61-11.23 2.18 1.34-2.11 2.67-4.26 3.93-6.47Zm0-27.84c-1.25-2.18-2.59-4.31-3.93-6.38 3.88.567 7.607 1.283 11.18 2.15-1 3.52-2.26 7.15-3.68 10.77-1.15-2.18-2.32-4.36-3.6-6.54h.03Zm-16.66-13.72c-2.46-.1-5-.19-7.5-.19s-5.1.06-7.58.19a105.674 105.674 0 0 1 7.5-8.72 114.22 114.22 0 0 1 7.58 8.72Zm-37.93-25a6.084 6.084 0 0 1 3.14-.71c5.64 0 14 4.5 22.9 12.71a129.387 129.387 0 0 0-11.26 13.6 129.052 129.052 0 0 0-17.34 3c-.63-2.72-1.09-5.37-1.42-7.9-1.28-10.42.3-18.52 3.98-20.67v-.03Zm-6.87 69.23c-2.7-.85-5.26-1.78-7.63-2.78-9.66-4.12-15.9-9.52-15.9-13.8 0-4.28 6.24-9.71 15.9-13.8 2.34-1 4.9-1.91 7.55-2.75a130.759 130.759 0 0 0 6.13 16.6 130.734 130.734 0 0 0-6.05 16.56v-.03Zm10.12 36.91a6.435 6.435 0 0 1-3.08-.73c-3.71-2.13-5.32-10.23-4.07-20.64.3-2.57.79-5.26 1.39-8a131.264 131.264 0 0 0 17.32 3 131.91 131.91 0 0 0 11.34 13.64c-8.89 8.24-17.23 12.76-22.9 12.76v-.03Zm27.23-17.09a114.561 114.561 0 0 1-7.58-8.73c2.46.11 5 .19 7.5.19s5.1-.05 7.58-.19a106.013 106.013 0 0 1-7.5 8.76v-.03Zm30.38 16.25a6.084 6.084 0 0 1-3.14.71c-5.64 0-14-4.5-22.9-12.71a129.387 129.387 0 0 0 11.26-13.6 129.052 129.052 0 0 0 17.34-3 75.545 75.545 0 0 1 1.42 7.93c1.28 10.45-.3 18.54-3.98 20.7v-.03Zm14.48-38.85c-2.35 1-4.91 1.9-7.56 2.75a131.57 131.57 0 0 0-6.13-16.61 129.01 129.01 0 0 0 6-16.52c2.7.85 5.26 1.77 7.66 2.78 9.66 4.12 15.9 9.52 15.9 13.8 0 4.28-6.22 9.74-15.87 13.83v-.03Z" fill="#61DAFB"/><path d="M315.97 761.29c6.881 0 12.46-5.579 12.46-12.46 0-6.881-5.579-12.46-12.46-12.46-6.881 0-12.46 5.579-12.46 12.46 0 6.881 5.579 12.46 12.46 12.46Z" fill="#61DAFB"/><path d="M157.06 421.04c11.576 0 20.96-9.384 20.96-20.96s-9.384-20.96-20.96-20.96-20.96 9.384-20.96 20.96 9.384 20.96 20.96 20.96Z" fill="#592D3D"/><path d="M156.93 417c1.79-.1 3.79-.26 5.7-.46 1.91-.2 3.86-.44 5.79-.74 1.93-.3 3.87-.65 5.81-1 1.94-.35 3.92-.68 6-.83a24.752 24.752 0 0 1-5.31 3.12 48.726 48.726 0 0 1-5.78 2 50.488 50.488 0 0 1-6 1.36 36.15 36.15 0 0 1-6.24.54l.03-3.99ZM477.77 421.04c11.576 0 20.96-9.384 20.96-20.96s-9.384-20.96-20.96-20.96-20.96 9.384-20.96 20.96 9.384 20.96 20.96 20.96Z" fill="#592D3D"/><path d="M477.77 417c1.8-.1 3.79-.26 5.7-.46 1.91-.2 3.87-.44 5.8-.74 1.93-.3 3.87-.65 5.81-1 1.94-.35 3.92-.68 6-.83a24.992 24.992 0 0 1-5.31 3.12 48.726 48.726 0 0 1-5.78 2 50.885 50.885 0 0 1-6 1.36c-2.061.36-4.148.541-6.24.54l.02-3.99Zm-218.63 35.86c0-18.9 113.72-16.06 113.72 0a56.861 56.861 0 0 1-113.72 0Z" fill="#592D3D"/><path d="M311 474c-16.95-1-31.73 6.75-36.65 18.22a56.857 56.857 0 0 0 65.14 12.53 55.478 55.478 0 0 0 6.51-3.55c-.92-14.11-15.94-26.02-35-27.2Z" fill="#F28195"/><path d="M259.14 452.86c0-18.9 113.72-16.06 113.72 0a56.861 56.861 0 0 1-113.72 0Z" stroke="#592D3D" stroke-width="6" stroke-miterlimit="10"/><path d="M294.12 463.46c.45-.11.63-.16.92-.21l.75-.14c.49-.09 1-.14 1.46-.18.96-.098 1.926-.131 2.89-.1a25.05 25.05 0 0 1 5.79.81 21.396 21.396 0 0 1 10.35 6.1 20.185 20.185 0 0 1 5.08 10.16c.625 3.508.15 7.123-1.36 10.35-2.07-2.93-3.66-5.56-5.32-7.76a28.294 28.294 0 0 0-2.45-3 14.09 14.09 0 0 0-2.7-2.16 15.48 15.48 0 0 0-6.11-2.09A29.622 29.622 0 0 0 300 475c-.59 0-1.18 0-1.76.05l-.85.06h-.62l-2.65-11.65Z" fill="#592D3D"/><path d="M374.73 230.34c-12.86 24-60 37.44-63.83 31.42-4.29-6.73 37.85-55.32 13.9-106.14" fill="#F3AB98"/><path d="M600 173.85c-5.1-5.1-31.06 1.83-57.19-.23A280.99 280.99 0 0 0 321.63 59.28c-2.44-20.48-.75-37.68-2.61-40.1-2.49-3.22-15.49 12.68-18.87 31-11.91-15-32.14-23-32.72-18.8-.38 2.68 7.44 14.09 14.81 29.9-111.6 13.47-203.08 92.26-235.08 197-13.86 11.92-26.86 20.34-27 25.69-.27 9.92 39.31 9.36 56.58 7.82v-.06c60.65-2 179-13.78 236.42-72.89-5.52 19.09-15.69 33.16-13.73 36.16 3 4.67 38.32-5.19 50.07-23.24 48 19.59 139.49 43.16 219-16.16l-.22-.43c14.49-12.11 38.07-34.92 31.72-41.32Z" fill="#85C5E5"/><path d="M542.85 179.62c-5.4.24-10.66.11-16-.14s-10.59-.67-15.87-1.26c-2.64-.29-5.28-.6-7.91-1s-5.27-.72-7.89-1.23a76.905 76.905 0 0 1-15.58-4.54 91.882 91.882 0 0 1 16-2.62c2.63-.22 5.26-.37 7.89-.48l7.88-.34c5.25-.22 10.49-.34 15.72-.45 5.23-.11 10.48-.12 15.62 0l.14 12.06ZM52.6 261v.39l-.12.53-.28 1.11c-.21.75-.43 1.52-.66 2.29-.47 1.55-1 3.14-1.54 4.75-.54 1.61-1.06 3.28-1.77 5a20.656 20.656 0 0 1-1.38 2.6 17.887 17.887 0 0 1-2.07 2.77 13.136 13.136 0 0 1-3.72-5.47 16.114 16.114 0 0 1-.76-2.9c-.21-1-.31-2-.43-2.95a30 30 0 0 1 0-6c.098-1.009.258-2.011.48-3 .12-.5.25-1 .41-1.51.077-.261.167-.518.27-.77.1-.28.18-.48.36-.9L52.6 261Z" fill="#592D3D"/><path d="M76.74 291.82v-.06c17-.56 38.63-1.9 62.14-4.84 2.63-55.92 22-121.58 65.92-198.44l-6.8-3.25A282.162 282.162 0 0 0 47.16 258.31c-13.86 11.92-26.86 20.34-27 25.69-.27 9.92 39.31 9.36 56.58 7.82Z" fill="#67B7D6"/><path d="M600 173.85c-5.1-5.1-31.06 1.83-57.19-.23A280.99 280.99 0 0 0 321.63 59.28c-2.44-20.48-.75-37.68-2.61-40.1-2.49-3.22-15.49 12.68-18.87 31-11.91-15-32.14-23-32.72-18.8-.38 2.68 7.44 14.09 14.81 29.9-111.6 13.47-203.08 92.26-235.08 197-13.86 11.92-26.86 20.34-27 25.69-.27 9.92 39.31 9.36 56.58 7.82v-.06c60.65-2 179-13.78 236.42-72.89-5.52 19.09-15.69 33.16-13.73 36.16 3 4.67 38.32-5.19 50.07-23.24 48 19.59 139.49 43.16 219-16.16l-.22-.43c14.49-12.11 38.07-34.92 31.72-41.32Z" stroke="#592D3D" stroke-width="12" stroke-miterlimit="10"/><path d="M321.93 75.31a367.408 367.408 0 0 0-42.48 4.94c-3.48.67-6.95 1.41-10.44 2.05-3.49.64-6.9 1.61-10.35 2.41l-10.26 2.72c-3.4 1-6.77 2.08-10.15 3.12a314.22 314.22 0 0 0-39.43 15.73 348.298 348.298 0 0 0-37.25 21 183.871 183.871 0 0 1 35.08-25.14 219.22 219.22 0 0 1 39.76-17.29c3.48-1 6.94-2.09 10.42-3.05 3.48-.96 7-1.82 10.55-2.6 3.55-.78 7.1-1.4 10.66-2 3.56-.6 7.15-1.07 10.73-1.52a189.999 189.999 0 0 1 43.16-.37Z" fill="#fff"/><path d="M416.89 291.57a318.241 318.241 0 0 1 33.51-6.65l-2.66.35c13.18-1.74 26.54-2.25 39.75-.48l-2.66-.36c3.27.46 6.54 1 9.82 1.42l-2.66-.36a221.029 221.029 0 0 1 29.48 6.11c5 1.39 11.1-1.73 12.3-7a10.19 10.19 0 0 0-7-12.3 239.126 239.126 0 0 0-34.59-6.78l2.66.36a143.002 143.002 0 0 0-33.44-1.95 235.102 235.102 0 0 0-33.09 4.55c-5.62 1.13-11.2 2.43-16.76 3.8-5.08 1.25-8.62 7.26-7 12.3a10.188 10.188 0 0 0 12.3 7l.04-.01Zm-314.75.03a202.567 202.567 0 0 1 29.25-6.19l-2.66.36a195.531 195.531 0 0 1 51.38.08l-2.66-.35a218.94 218.94 0 0 1 29.45 6.1c5 1.4 11.1-1.73 12.3-7a10.19 10.19 0 0 0-7-12.3 227.318 227.318 0 0 0-44.2-7.7 208.268 208.268 0 0 0-71.22 7.71 10.39 10.39 0 0 0-6 4.6 10.2 10.2 0 0 0-1 7.7c1.65 5.11 6.91 8.54 12.3 7l.06-.01Z" fill="#592D3D"/><path opacity=".15" d="M541 462.82a265.298 265.298 0 0 0 26.3-59.43c-17.24 35.74-49.84 65.46-92.11 65.46a106.752 106.752 0 0 1-106.61-106.63 105.677 105.677 0 0 1 7.83-40.22H574a105.31 105.31 0 0 1 7.62 33.39c.73-8 1.12-16.19 1.12-24.42a269.111 269.111 0 0 0-1.58-29H50.83a269.162 269.162 0 0 0-1.58 29c0 4.73.14 9.42.38 14.09A104.935 104.935 0 0 1 56.1 322h197.6a106.701 106.701 0 0 1-98.8 146.82c-38.8 0-68.82-25.83-87.48-56.89a266.14 266.14 0 0 0 24.76 52.84c19.39 12.07 38.25 24.05 62.72 24.05a126.786 126.786 0 0 0 89.487-37.122 126.783 126.783 0 0 0 37.143-89.478c0-1.81 0-3.61-.12-5.4 23.38-8.23 45.52-8.35 67.31-.36-.08 1.91-.14 3.83-.14 5.76a126.782 126.782 0 0 0 126.63 126.63c25.79 0 45.79-12.75 65.79-26.03ZM351.26 336.18c-23.4-7.55-47.64-7.42-72.33.39A124.54 124.54 0 0 0 275 322h80.1a122.606 122.606 0 0 0-3.84 14.18Z" fill="#000"/><path opacity=".95" d="M49.59 300.82s.41 32.23.41 50.2c0 64.41 40.48 116.63 104.9 116.63a116.686 116.686 0 0 0 98.617-54.402A116.686 116.686 0 0 0 260.2 300.82H49.59Zm320.32 0a116.686 116.686 0 0 0 48.993 152.316 116.686 116.686 0 0 0 56.307 14.514c64.42 0 107.54-52.22 107.54-116.63 0-18-2.23-50.2-2.23-50.2H369.91Z" fill="#592D3D"/><path opacity=".25" d="m136 457.86 123.07-123.08a93.06 93.06 0 0 0-10-17.27L118.72 447.88a93.637 93.637 0 0 0 17.28 9.98Z" fill="#fff"/><path d="M271.86 338.53c29.52-12 58.53-12.42 87 0" stroke="#592D3D" stroke-width="20" stroke-miterlimit="10"/><path d="M90.28 335.75c2.06 6.51-5.94 11.51-11.94 12.51-6 0-10-4-12-9-1-5 0-10 4-13 5-2 12-4 16.44 1.12a11.704 11.704 0 0 1 3.5 8.37Zm10.72-3.82c-.61 4.33-6.61 4.33-7.61.33 0-3 1-4 3.84-4.1a3.77 3.77 0 0 1 3.77 3.77Z" fill="#fff"/><path opacity=".25" d="m461.19 449.92 106.28-106.28a93.969 93.969 0 0 0-2.41-11.22L450 447.51a94.362 94.362 0 0 0 11.19 2.41Z" fill="#fff"/><path d="M406.68 336.73c2.06 6.51-5.94 11.51-11.94 12.51-6 0-10-4-12-9-1-5 0-10 4-13 5-2 12-4 16.45 1.12a11.69 11.69 0 0 1 3.49 8.37Zm10.67-3.82c-.61 4.33-6.61 4.33-7.61.33 0-3 1-4 3.85-4.1a3.769 3.769 0 0 1 2.662 1.105 3.76 3.76 0 0 1 1.098 2.665Z" fill="#fff"/><path d="M239.14 300.81h151.83m-341.38.01s-.34 31.69.41 50.2c2.6 64.36 40.48 116.63 104.9 116.63a116.686 116.686 0 0 0 98.617-54.402A116.686 116.686 0 0 0 260.2 300.82H49.59Zm320.32 0a116.686 116.686 0 0 0 48.993 152.316 116.686 116.686 0 0 0 56.307 14.514c64.42 0 107.54-51.53 107.54-115.94 0-18-2.23-50.89-2.23-50.89H369.91Z" stroke="#592D3D" stroke-width="20" stroke-miterlimit="10"/></g><defs><clipPath id="a"><path fill="#fff" d="M0 0h632v821H0z"/></clipPath></defs></svg>
